<svg id="Layer_1" data-name="Layer 1" xmlns="http://www.w3.org/2000/svg" viewBox="0 0 332.91 75.29"><defs><style>.cls-1{fill:#f15a29;}.cls-2{fill:#231f20;}</style></defs><title>DDB_Horizontal_BT</title><path class="cls-1" d="M122,140h3.7a23.24,23.24,0,0,1,45.46-1.28c.1.42.15.85.23,1.28h3.71c-.11-.71-.21-1.43-.38-2.13-.11-.43-.24-.84-.36-1.26l9.95-3.41L183,129.48l-10,3.45a26,26,0,0,0-2-3.69l4.52-3.5L173,122.62l-4.53,3.5a26.69,26.69,0,0,0-3.35-3.12l8.3-10.35-3.08-2.47-8.52,10.62a26.77,26.77,0,0,0-3.76-1.75l1.9-4.94-3.68-1.42-2,5.24a26.14,26.14,0,0,0-3.77-.55V106.56h-3.95v10.83a26.08,26.08,0,0,0-3.78.55l-2-5.25-3.68,1.42,1.9,4.94a26.11,26.11,0,0,0-3.73,1.79l-8.55-10.66-3.08,2.47L132,123.06a26.49,26.49,0,0,0-3.33,3.11l-4.6-3.55-2.41,3.12,4.57,3.53a26.94,26.94,0,0,0-2.06,3.67l-10.08-3.46-1.28,3.74,10,3.42A27.61,27.61,0,0,0,122,140Z" transform="translate(-112.8 -106.56)"/><path class="cls-1" d="M174.92,149.63l.45-2.2H160.44a8,8,0,0,0,.86-5.25,7,7,0,0,0-1.91-3.32c-.6-.66-.82-.94-.88-1.39a4.8,4.8,0,0,1,1.36-3.26l-3.37-2.64c-1.76,2.26-2.52,4.44-2.23,6.49a6.58,6.58,0,0,0,1.95,3.67,3.07,3.07,0,0,1,.9,1.37c.22,1-.39,2.52-1.66,4.33h-4.29a8,8,0,0,0,.85-5.25,7,7,0,0,0-1.91-3.32c-.6-.66-.82-.93-.88-1.39a4.8,4.8,0,0,1,1.36-3.26l-3.37-2.64c-1.76,2.26-2.51,4.44-2.23,6.49a6.64,6.64,0,0,0,1.95,3.67,3.2,3.2,0,0,1,.91,1.37c.22,1-.4,2.52-1.67,4.33h-4.29a8,8,0,0,0,.85-5.25,7,7,0,0,0-1.91-3.32c-.6-.66-.82-.93-.88-1.39a4.8,4.8,0,0,1,1.36-3.26L138,131.57c-1.77,2.26-2.52,4.44-2.24,6.49a6.64,6.64,0,0,0,1.95,3.67,3.11,3.11,0,0,1,.91,1.37c.22,1-.4,2.52-1.67,4.33H121.74l.45,2.2q.23,1.1.54,2.16l-9.93,3.41,1.28,3.73,10.06-3.45a26.35,26.35,0,0,0,2.06,3.67l-4.55,3.52,2.41,3.13,4.58-3.54a26,26,0,0,0,3.35,3.11l-8.35,10.4,3.08,2.47,8.54-10.65a26.66,26.66,0,0,0,3.75,1.75l-1.91,5,3.68,1.42,2-5.25a26.15,26.15,0,0,0,3.77.56v10.82h3.95V171a26.36,26.36,0,0,0,3.77-.56l2,5.25L160,174.3l-1.91-5a26.66,26.66,0,0,0,3.75-1.75l8.54,10.65,3.08-2.47-8.34-10.4a27.37,27.37,0,0,0,3.35-3.11L173,165.8l2.41-3.13-4.55-3.52a27.47,27.47,0,0,0,2.07-3.67L183,158.93l1.29-3.73-9.94-3.41C174.58,151.08,174.77,150.36,174.92,149.63Zm-26.37,17.83a23.35,23.35,0,0,1-22.22-16.37h44.44A23.33,23.33,0,0,1,148.55,167.46Z" transform="translate(-112.8 -106.56)"/><path class="cls-2" d="M197.4,140.55V140l.33-.19a8.16,8.16,0,0,0,.82-.51c.08-1,.13-2.75.13-5.1v-1.92c0-1,0-2.55-.06-4.54a12.59,12.59,0,0,0-.16-2.11.35.35,0,0,0-.09-.16.6.6,0,0,0-.29-.14c-.13,0-.63-.1-1.48-.21v-1l4.26.07q.75,0,2.82-.06c1,0,1.8,0,2.4,0a17.19,17.19,0,0,1,3.32.26,6.62,6.62,0,0,1,2.18.8,6.13,6.13,0,0,1,1.56,1.32,5.63,5.63,0,0,1,1,1.64,10,10,0,0,1-.27,7.23,8.29,8.29,0,0,1-2.26,3,9.21,9.21,0,0,1-3.11,1.7,13.58,13.58,0,0,1-4,.52l-3.48-.07Zm4.69-1.43a13.87,13.87,0,0,0,2.08.17,10.57,10.57,0,0,0,2.77-.33,5.08,5.08,0,0,0,1.56-.72,5.24,5.24,0,0,0,1.28-1.38,7.12,7.12,0,0,0,.95-2.18,10.31,10.31,0,0,0,.34-2.73,9.61,9.61,0,0,0-.34-2.58,5.61,5.61,0,0,0-1.11-2.19,4.4,4.4,0,0,0-2-1.36,11.36,11.36,0,0,0-3.58-.42,14.62,14.62,0,0,0-2,.15q-.12,1.67-.12,6.27v2.7C202,136.84,202,138.38,202.09,139.12Z" transform="translate(-112.8 -106.56)"/><path class="cls-2" d="M229.46,132.55a9.73,9.73,0,0,1,.65-3.74,7.53,7.53,0,0,1,4.48-4.31,13,13,0,0,1,7.83,0,7.17,7.17,0,0,1,2.28,1.32,6.83,6.83,0,0,1,1.5,1.77,7.18,7.18,0,0,1,.78,2,9.73,9.73,0,0,1,.27,2.38,10.74,10.74,0,0,1-.77,4.08,7.38,7.38,0,0,1-1.64,2.5,7.63,7.63,0,0,1-2.47,1.68A11.3,11.3,0,0,1,238,141a10,10,0,0,1-4.53-1,7,7,0,0,1-3-2.82A9.13,9.13,0,0,1,229.46,132.55Zm3.61-.69a11.7,11.7,0,0,0,.75,4.51,5.23,5.23,0,0,0,1.92,2.53,5.08,5.08,0,0,0,2.76.74,5,5,0,0,0,2.65-.71,4.62,4.62,0,0,0,1.82-2.37,10.94,10.94,0,0,0,.67-4.07,11.75,11.75,0,0,0-.36-3,7.16,7.16,0,0,0-1-2.32,4.69,4.69,0,0,0-1.57-1.45,4.93,4.93,0,0,0-2.41-.51,5.15,5.15,0,0,0-2.91.8,4.55,4.55,0,0,0-1.75,2.38A10.57,10.57,0,0,0,233.07,131.86Z" transform="translate(-112.8 -106.56)"/><path class="cls-2" d="M273.15,124h1.08c.29.79.57,1.55.86,2.26,1.21,3.12,2,5,2.2,5.58l1.41,3.47,1.35-5.25c.53-2.08.83-3.35.91-3.82a2.38,2.38,0,0,0,0-.36.56.56,0,0,0-.11-.38.55.55,0,0,0-.33-.2c-.07,0-.57-.06-1.48-.13v-1l2.54.08,2.77-.08v1l-.26,0a2.87,2.87,0,0,0-.9.14,1.06,1.06,0,0,0-.32.34,20.82,20.82,0,0,0-.8,2.42q-.64,2.16-1.91,6.95t-1.39,5.63H277l-1.27-3.39-3.2-8.14q-.5,1.11-3.59,8.42l-1.26,3.11H266l-2.72-12.46a20.27,20.27,0,0,0-.63-2.48.78.78,0,0,0-.35-.4,3.79,3.79,0,0,0-1.22-.16v-1l3.27.07,3.83-.07v1c-.69,0-1.07,0-1.14.05a.86.86,0,0,0-.47.18.54.54,0,0,0-.14.4c0,.09,0,.19,0,.3s.09.57.24,1.36c.29,1.55.5,2.64.63,3.25l1.05,4.75c.08-.21.41-1,1-2.37l1.48-3.43,1.86-4.47C272.83,124.78,273,124.38,273.15,124Z" transform="translate(-112.8 -106.56)"/><path class="cls-2" d="M297.78,139.56a13.17,13.17,0,0,0,1.58-.13.5.5,0,0,0,.22-.16,1,1,0,0,0,.15-.43c0-.3.1-1,.16-2.16,0-.64.05-1.49.05-2.53v-3.76l-.05-3.41a7,7,0,0,0-.07-1.11.9.9,0,0,0-.17-.38.8.8,0,0,0-.37-.2,14.78,14.78,0,0,0-1.5-.15v-1c1,0,1.72.07,2.19.07l1.7,0,1.08,0q2.42,3.15,5.85,7.26c1.65,2,3,3.53,4.1,4.64v-2.7q0-6.32-.14-7.42a.8.8,0,0,0-.21-.56,4.4,4.4,0,0,0-1.83-.24v-1c1,0,1.83.07,2.62.07s1.77,0,3-.07v1a5.05,5.05,0,0,0-1.7.21.35.35,0,0,0-.13.18,13.73,13.73,0,0,0-.22,2.68c0,1.39-.06,2.42-.06,3.08q0,7.8.15,9.46l-.15.11-2-.31q-3.78-4.23-10.73-12.7v5.83c0,1.22,0,2.48.07,3.79a8.15,8.15,0,0,0,.14,1.65.46.46,0,0,0,.15.23.82.82,0,0,0,.4.12,8.8,8.8,0,0,0,1.11.1h.23v.94l-2.53,0c-.75,0-1.78,0-3.08.07Z" transform="translate(-112.8 -106.56)"/><path class="cls-2" d="M333.4,140.55v-1a5.36,5.36,0,0,0,1.67-.19.7.7,0,0,0,.36-.47,18.4,18.4,0,0,0,.13-3v-7c0-1.91,0-3,0-3.21h-1.67c-.85,0-1.59,0-2.23.08a1,1,0,0,0-.44.09.72.72,0,0,0-.14.41,11.25,11.25,0,0,0-.18,1.84h-1q0-2.4-.06-2.7c0-.35-.06-.72-.12-1.12l.11-.11c.36,0,.75.06,1.17.08.67,0,2,0,3.88,0h4.73c2,0,3.29,0,3.95,0,.36,0,.72,0,1.09-.08l.12.11a11.24,11.24,0,0,0-.13,1.26c0,.06,0,.92-.05,2.56h-1a15.87,15.87,0,0,0-.15-1.74,1.17,1.17,0,0,0-.16-.51,1,1,0,0,0-.37-.08q-1-.09-2.31-.09H339c0,.27,0,1.34,0,3.21v7a18.9,18.9,0,0,0,.13,3,.69.69,0,0,0,.35.45,5.51,5.51,0,0,0,1.68.19v1c-1.52-.07-2.8-.1-3.84-.1S334.85,140.48,333.4,140.55Z" transform="translate(-112.8 -106.56)"/><path class="cls-2" d="M358.79,132.55a9.92,9.92,0,0,1,.65-3.74,7.62,7.62,0,0,1,1.86-2.71,7.54,7.54,0,0,1,2.63-1.6,12.94,12.94,0,0,1,7.82,0,7.17,7.17,0,0,1,2.28,1.32,6.89,6.89,0,0,1,1.51,1.77,7.86,7.86,0,0,1,.78,2,10.27,10.27,0,0,1,.26,2.38,10.73,10.73,0,0,1-.76,4.08,7.26,7.26,0,0,1-1.65,2.5,7.59,7.59,0,0,1-2.46,1.68,11.35,11.35,0,0,1-4.34.78,10,10,0,0,1-4.53-1,7.08,7.08,0,0,1-3-2.82A9.13,9.13,0,0,1,358.79,132.55Zm3.61-.69a11.7,11.7,0,0,0,.75,4.51,5.23,5.23,0,0,0,1.92,2.53,5.14,5.14,0,0,0,2.77.74,5,5,0,0,0,2.64-.71,4.58,4.58,0,0,0,1.83-2.37,11.16,11.16,0,0,0,.66-4.07,12.23,12.23,0,0,0-.35-3,7.16,7.16,0,0,0-1-2.32,4.71,4.71,0,0,0-1.58-1.45,4.86,4.86,0,0,0-2.4-.51,5.16,5.16,0,0,0-2.92.8,4.53,4.53,0,0,0-1.74,2.38A10.31,10.31,0,0,0,362.4,131.86Z" transform="translate(-112.8 -106.56)"/><path class="cls-2" d="M402.49,124h1.08c.28.79.57,1.55.85,2.26q1.83,4.68,2.2,5.58l1.41,3.47,1.36-5.25c.52-2.08.82-3.35.9-3.82a1.59,1.59,0,0,0,0-.36.53.53,0,0,0-.45-.58c-.07,0-.56-.06-1.47-.13v-1l2.54.08,2.76-.08v1l-.25,0a2.89,2.89,0,0,0-.91.14,1,1,0,0,0-.31.34,22,22,0,0,0-.81,2.42q-.65,2.16-1.91,6.95t-1.38,5.63h-1.8l-1.26-3.39-3.2-8.14q-.51,1.11-3.6,8.42L397,140.63h-1.71l-2.72-12.46a17.77,17.77,0,0,0-.64-2.48.74.74,0,0,0-.35-.4,3.74,3.74,0,0,0-1.22-.16v-1l3.27.07,3.84-.07v1c-.69,0-1.07,0-1.14.05a.83.83,0,0,0-.47.18.54.54,0,0,0-.14.4,1.62,1.62,0,0,0,0,.3c0,.11.09.57.24,1.36.29,1.55.5,2.64.63,3.25l1,4.75,1-2.37,1.47-3.43,1.87-4.47Z" transform="translate(-112.8 -106.56)"/><path class="cls-2" d="M427.12,139.56a13.17,13.17,0,0,0,1.58-.13.57.57,0,0,0,.22-.16,1.16,1.16,0,0,0,.14-.43c.05-.3.1-1,.17-2.16,0-.64,0-1.49,0-2.53v-3.76l0-3.41a8.49,8.49,0,0,0-.07-1.11.9.9,0,0,0-.17-.38.85.85,0,0,0-.37-.2q-.27-.06-1.5-.15v-1c1,0,1.72.07,2.19.07l1.7,0,1.07,0q2.42,3.15,5.85,7.26,2.47,3,4.1,4.64v-2.7c0-4.21,0-6.68-.14-7.42a.8.8,0,0,0-.21-.56,4.4,4.4,0,0,0-1.83-.24v-1c1,0,1.83.07,2.63.07s1.77,0,3-.07v1a5,5,0,0,0-1.7.21.3.3,0,0,0-.13.18,13.43,13.43,0,0,0-.23,2.68c0,1.39-.05,2.42-.05,3.08q0,7.8.15,9.46l-.15.11-2-.31q-3.78-4.23-10.73-12.7v5.83c0,1.22,0,2.48.07,3.79a9,9,0,0,0,.14,1.65.48.48,0,0,0,.16.23.74.74,0,0,0,.39.12,8.92,8.92,0,0,0,1.12.1h.23v.94l-2.53,0c-.76,0-1.79,0-3.08.07Z" transform="translate(-112.8 -106.56)"/><path class="cls-2" d="M197.21,165.75v-.49l.28-.16a8.12,8.12,0,0,0,.72-.46c.08-.91.11-2.4.11-4.46V158.5c0-.9,0-2.22,0-4a10.64,10.64,0,0,0-.13-1.84.53.53,0,0,0-.08-.15.63.63,0,0,0-.26-.12c-.11,0-.55-.09-1.29-.18v-.83l3.72.06,2.47-.05,2.1,0a15.1,15.1,0,0,1,2.91.22,5.86,5.86,0,0,1,1.9.7,5.37,5.37,0,0,1,1.37,1.16,4.88,4.88,0,0,1,.85,1.43,8.08,8.08,0,0,1,.48,2.83,8.17,8.17,0,0,1-.72,3.5,7.19,7.19,0,0,1-2,2.57,8.2,8.2,0,0,1-2.72,1.5,12.19,12.19,0,0,1-3.54.45l-3.05-.06Zm4.1-1.25a11.6,11.6,0,0,0,1.82.14,9.3,9.3,0,0,0,2.42-.28,4,4,0,0,0,2.49-1.84,6.31,6.31,0,0,0,.84-1.91,9.46,9.46,0,0,0,.29-2.38,9,9,0,0,0-.29-2.27,5.18,5.18,0,0,0-1-1.91,3.93,3.93,0,0,0-1.71-1.19,10.16,10.16,0,0,0-3.14-.37,12.42,12.42,0,0,0-1.74.14c-.07,1-.1,2.8-.1,5.48v2.36C201.21,162.51,201.24,163.85,201.31,164.5Z" transform="translate(-112.8 -106.56)"/><path class="cls-2" d="M236.92,165v.77c-.79,0-1.48-.05-2.09-.05s-1.13,0-1.67.05l-.1-.11.1-1.34c-.25.15-1,.69-2.18,1.62a4.66,4.66,0,0,1-.88.1,2.31,2.31,0,0,1-1.75-.66,2.61,2.61,0,0,1-.63-1.88,3,3,0,0,1,.28-1.37,2.43,2.43,0,0,1,.61-.78,3.56,3.56,0,0,1,1-.49,21.64,21.64,0,0,1,3.55-.9,2.81,2.81,0,0,0-.51-1.86,2,2,0,0,0-1.62-.63,2.94,2.94,0,0,0-.84.11,1.67,1.67,0,0,0-.41.2l-.43,1-.7-.15.07-1.33c.5-.34,1-.64,1.44-.89a5.61,5.61,0,0,1,1-.46,3.68,3.68,0,0,1,1.06-.11,4.43,4.43,0,0,1,1.84.32,2.86,2.86,0,0,1,1.07.76,2.49,2.49,0,0,1,.47.95,5,5,0,0,1,.13,1.27c0,.22,0,.79,0,1.71,0,.62,0,1.12,0,1.51a12.91,12.91,0,0,0,.1,2.21.34.34,0,0,0,.16.25A4.51,4.51,0,0,0,236.92,165Zm-3.76-4.18a10.86,10.86,0,0,0-1.6.45,2,2,0,0,0-1,.64,1.66,1.66,0,0,0-.27,1,1.46,1.46,0,0,0,.33,1,1.16,1.16,0,0,0,.88.35,1.82,1.82,0,0,0,.92-.26,2.21,2.21,0,0,0,.74-.68Z" transform="translate(-112.8 -106.56)"/><path class="cls-2" d="M251.65,165.75V165a4.73,4.73,0,0,0,1.32-.18.46.46,0,0,0,.2-.36,23,23,0,0,0,.1-2.9,36,36,0,0,0-.09-3.65.42.42,0,0,0-.13-.27,3.78,3.78,0,0,0-1.4-.14v-.78a20.94,20.94,0,0,0,2.34-.35,11.38,11.38,0,0,0,1.72-.56l.25.13q-.12,1.6-.12,3v3.49a13.58,13.58,0,0,0,.08,2.11.36.36,0,0,0,.16.25,4.59,4.59,0,0,0,1.35.17v.8c-1,0-2,0-3.17,0C253.27,165.71,252.41,165.72,251.65,165.75Zm2.81-14.85a1.53,1.53,0,0,1,1.12.47,1.5,1.5,0,0,1,.45,1.1,1.55,1.55,0,0,1-.45,1.12,1.52,1.52,0,0,1-1.12.46,1.47,1.47,0,0,1-1.1-.46,1.53,1.53,0,0,1-.47-1.12,1.59,1.59,0,0,1,1.57-1.57Z" transform="translate(-112.8 -106.56)"/><path class="cls-2" d="M277.86,164.93v.82c-.85-.05-1.74-.08-2.67-.08s-2,0-3.14.08v-.81a9.41,9.41,0,0,0,1.18-.08.55.55,0,0,0,.23-.12.45.45,0,0,0,.11-.24,16.89,16.89,0,0,0,.1-1.94c0-1.08,0-2.05,0-2.89v-3.38c0-1.08,0-2.06-.07-2.95a3.2,3.2,0,0,0-.11-.85.29.29,0,0,0-.11-.11,1.12,1.12,0,0,0-.39-.12c-.1,0-.41,0-.92,0v-.76c.85-.09,1.52-.19,2-.29s1.19-.3,2-.56l.22.12-.09,2.07c0,1.16-.05,2.59-.06,4.28v2.62c0,1,0,1.73,0,2.23q0,1.83.06,2.22a1.44,1.44,0,0,0,.08.48.31.31,0,0,0,.1.13,1,1,0,0,0,.32.11C276.88,164.87,277.23,164.9,277.86,164.93Z" transform="translate(-112.8 -106.56)"/><path class="cls-2" d="M292.69,171c.12-.5.19-.85.23-1l.15-1,.27-.05a3,3,0,0,0,.58.47,2.06,2.06,0,0,0,.86.17,1.57,1.57,0,0,0,1-.36,4.55,4.55,0,0,0,1-1.59l.41-1L293.86,158a2.1,2.1,0,0,0-.57-.94,2,2,0,0,0-1-.17v-.81c.67,0,1.49,0,2.46,0,1.15,0,2.17,0,3.07,0v.81h-.24a1.71,1.71,0,0,0-.88.15.31.31,0,0,0-.16.26,1.22,1.22,0,0,0,.11.45l.5,1.39,1.5,3.91.9-2.14a19.11,19.11,0,0,0,1.32-3.65.25.25,0,0,0-.05-.16.4.4,0,0,0-.26-.12,5.75,5.75,0,0,0-1-.09v-.81c.44,0,1,0,1.65,0s1.56,0,2.26,0v.81h-.17a1.16,1.16,0,0,0-.52.11.73.73,0,0,0-.27.2,9.2,9.2,0,0,0-.58,1.13c-.4.86-.73,1.57-1,2.13-.76,1.74-1.25,2.85-1.45,3.34l-1.65,4a7.54,7.54,0,0,1-1.61,2.62,2.93,2.93,0,0,1-2.07.79,4.27,4.27,0,0,1-.74-.06A4.14,4.14,0,0,1,292.69,171Z" transform="translate(-112.8 -106.56)"/><path class="cls-2" d="M337.68,165.75v-.48a5.23,5.23,0,0,0,.9-.64q.06-.49.09-1.23c0-1,0-2.81,0-5.44,0-.71,0-1.8,0-3.29a12.4,12.4,0,0,0-.12-2,.36.36,0,0,0-.15-.22,4.94,4.94,0,0,0-1.54-.22v-.85h.47l1.42,0h1.73l1.61,0,1.93-.06a7.73,7.73,0,0,1,2.61.34,2.57,2.57,0,0,1,1.77,2.5,3.05,3.05,0,0,1-.49,1.64,3.45,3.45,0,0,1-1.25,1.18,10.55,10.55,0,0,1-2,.68,8.54,8.54,0,0,1,2.6.6,2.78,2.78,0,0,1,1.18,1.15,3.55,3.55,0,0,1,.44,1.75,3.77,3.77,0,0,1-.45,1.84,4.69,4.69,0,0,1-1.17,1.41,5.67,5.67,0,0,1-1.63.93,6.7,6.7,0,0,1-2.31.34l-3.44-.06C339.3,165.69,338.58,165.71,337.68,165.75Zm3.89-8.43h.59a6.63,6.63,0,0,0,1.3-.11,2.33,2.33,0,0,0,1-.39A2.24,2.24,0,0,0,345,156a3.13,3.13,0,0,0,.25-1.29,2.61,2.61,0,0,0-.29-1.26,1.72,1.72,0,0,0-.75-.74,3.4,3.4,0,0,0-1.38-.22,7.46,7.46,0,0,0-1.21.09c0,.49-.07,1.05-.07,1.7l0,1.59Zm0,7.28a6.82,6.82,0,0,0,1.27.08,2.7,2.7,0,0,0,2.06-.84,3.39,3.39,0,0,0,.78-2.39,3.53,3.53,0,0,0-.41-1.8,2.27,2.27,0,0,0-1.09-1,4.92,4.92,0,0,0-1.86-.28,6.52,6.52,0,0,0-.79,0v4.68l0,1.22A1.77,1.77,0,0,0,341.61,164.6Z" transform="translate(-112.8 -106.56)"/><path class="cls-2" d="M370.12,165v.79c-.78,0-1.64-.05-2.59-.05s-2.16,0-3.3.05V165a3.94,3.94,0,0,0,1.11-.11.39.39,0,0,0,.21-.17,1.88,1.88,0,0,0,.12-.74l0-.92c0-.19,0-.5,0-.93v-1.34c0-.61,0-1.35-.07-2.22a2.69,2.69,0,0,0-.08-.74.35.35,0,0,0-.18-.13,5.5,5.5,0,0,0-1.16-.1v-.79c1.24-.21,2.06-.37,2.45-.47a8.48,8.48,0,0,0,1.32-.49l.28.12,0,2.07c.44-.46.78-.84,1-1.14a5,5,0,0,1,.79-.81,1.8,1.8,0,0,1,1-.24,1.92,1.92,0,0,1,.69.12l-.07,1.45c0,.8,0,1.25-.05,1.37l-.43.13a1.76,1.76,0,0,0-.49-.47,1.69,1.69,0,0,0-.83-.22,1.55,1.55,0,0,0-1,.38,1.47,1.47,0,0,0-.52.76c0,.15,0,.73,0,1.74v1l0,1.4a6.4,6.4,0,0,0,.06,1,.48.48,0,0,0,.21.28,1.82,1.82,0,0,0,.7.14Z" transform="translate(-112.8 -106.56)"/><path class="cls-2" d="M394.83,164.17l-.45,1a7.19,7.19,0,0,1-1.74.76,6.3,6.3,0,0,1-1.52.17,6.48,6.48,0,0,1-1.79-.23,4.52,4.52,0,0,1-1.32-.65,4.41,4.41,0,0,1-1-1,3.79,3.79,0,0,1-.6-1.37,7.56,7.56,0,0,1-.19-1.7,7.38,7.38,0,0,1,.36-2.4,2.84,2.84,0,0,1,.58-1.07,9.33,9.33,0,0,1,1.06-.77,12.92,12.92,0,0,1,1.25-.74,4.23,4.23,0,0,1,1.7-.31,4.08,4.08,0,0,1,2.25.57,3.11,3.11,0,0,1,1.25,1.47,5.74,5.74,0,0,1,.36,2.16,4.87,4.87,0,0,1,0,.55,9.63,9.63,0,0,1-1.72.33c-.51,0-1.19.07-2,.07l-1.4,0h-1a3.7,3.7,0,0,0,1,2.55,3,3,0,0,0,2.27.94,4.1,4.1,0,0,0,1.08-.13,6.88,6.88,0,0,0,1.29-.52Zm-2.44-4.24a3.93,3.93,0,0,0-.44-2.29,1.54,1.54,0,0,0-1.28-.64,1.6,1.6,0,0,0-1.32.67,3.6,3.6,0,0,0-.49,2.26,15.6,15.6,0,0,0,2,.09A10.64,10.64,0,0,0,392.39,159.93Z" transform="translate(-112.8 -106.56)"/><path class="cls-2" d="M419.37,165v.77c-.78,0-1.48-.05-2.09-.05s-1.13,0-1.67.05l-.09-.11.09-1.34c-.25.15-1,.69-2.17,1.62a4.76,4.76,0,0,1-.89.1,2.29,2.29,0,0,1-1.74-.66,2.61,2.61,0,0,1-.63-1.88,2.9,2.9,0,0,1,.28-1.37,2.57,2.57,0,0,1,.6-.78,3.7,3.7,0,0,1,1-.49,21.91,21.91,0,0,1,3.55-.9,2.81,2.81,0,0,0-.5-1.86,2,2,0,0,0-1.62-.63,2.84,2.84,0,0,0-.84.11,1.39,1.39,0,0,0-.41.2l-.43,1-.7-.15.06-1.33c.51-.34,1-.64,1.45-.89a5.62,5.62,0,0,1,1-.46,3.76,3.76,0,0,1,1.07-.11,4.5,4.5,0,0,1,1.84.32,2.81,2.81,0,0,1,1.06.76,2.67,2.67,0,0,1,.48.95,5.58,5.58,0,0,1,.12,1.27c0,.22,0,.79,0,1.71,0,.62,0,1.12,0,1.51a14.15,14.15,0,0,0,.1,2.21.34.34,0,0,0,.17.25A4.38,4.38,0,0,0,419.37,165Zm-3.76-4.18a10.71,10.71,0,0,0-1.59.45,2,2,0,0,0-1,.64,1.59,1.59,0,0,0-.28,1,1.46,1.46,0,0,0,.33,1,1.17,1.17,0,0,0,.88.35,1.82,1.82,0,0,0,.93-.26,2.18,2.18,0,0,0,.73-.68Z" transform="translate(-112.8 -106.56)"/><path class="cls-2" d="M445.71,165v.74l-2.16,0-1.84,0-.1-.08.06-.81,0-.84c-.48.4-1,.84-1.55,1.33a5.83,5.83,0,0,1-.65.53,2.91,2.91,0,0,1-1,.15,3.62,3.62,0,0,1-2.82-1.25,4.89,4.89,0,0,1-1.12-3.41,6.45,6.45,0,0,1,.33-2.14,3.37,3.37,0,0,1,.57-1.11A9.2,9.2,0,0,1,436.8,157a8.47,8.47,0,0,1,1.64-1,3.58,3.58,0,0,1,1.29-.19,3.69,3.69,0,0,1,.81.07,8.09,8.09,0,0,1,1.11.38c0-.4,0-.82,0-1.26s0-1.15-.06-1.89a1.54,1.54,0,0,0-.11-.67.35.35,0,0,0-.2-.13c-.09,0-.51,0-1.27-.06v-.76a16.61,16.61,0,0,0,4.06-.89l.26.15c-.08,1.83-.12,2.91-.13,3.23,0,1.79,0,4.28,0,7.5v.95c0,.47,0,1,.05,1.51a2.1,2.1,0,0,0,.1.7.42.42,0,0,0,.24.19A6.07,6.07,0,0,0,445.71,165Zm-4.06-6.55a3.92,3.92,0,0,0-.92-.88,2.9,2.9,0,0,0-1.48-.39,1.84,1.84,0,0,0-1.16.34,2.08,2.08,0,0,0-.67,1.12,6.71,6.71,0,0,0-.21,1.77,4.59,4.59,0,0,0,.79,2.88,1.94,1.94,0,0,0,1.6.75,2.12,2.12,0,0,0,1.33-.43,1.7,1.7,0,0,0,.68-.83,14.88,14.88,0,0,0,.11-2.44Z" transform="translate(-112.8 -106.56)"/></svg>